HIERARCHY
ROOT root
{
	OFFSET	0	13.1	24.9
	CHANNELS 6  Xposition Yposition Zposition Xrotation Yrotation Zrotation
	JOINT spine_1
	{
		OFFSET	0	9.99999	0
		CHANNELS 3  Xrotation Yrotation Zrotation
		JOINT spine_2
		{
			OFFSET	0	112	-10
			CHANNELS 3  Xrotation Yrotation Zrotation
			JOINT spine_3
			{
				OFFSET	0	206.5	19.3
				CHANNELS 3  Xrotation Yrotation Zrotation
				JOINT spine_4
				{
					OFFSET	0	110.4	14.6
					CHANNELS 3  Xrotation Yrotation Zrotation
					JOINT neck_1
					{
						OFFSET	0	71.8	-50.3
						CHANNELS 3  Xrotation Yrotation Zrotation
						JOINT neck_2
						{
							OFFSET	0	86.2	-25.8
							CHANNELS 3  Xrotation Yrotation Zrotation
							JOINT head_ee
							{
								OFFSET	0	179.8	-8.7
								CHANNELS 3  Xrotation Yrotation Zrotation
								End Site
								{
									OFFSET	1	0	0
								}
							}
						}
					}
					JOINT left_clavicle
					{
						OFFSET	-43.2	22.4	-70.8
						CHANNELS 3  Xrotation Yrotation Zrotation
						JOINT left_shoulder
						{
							OFFSET	-93.9	-5.79999	48.7
							CHANNELS 3  Xrotation Yrotation Zrotation
							JOINT left_elbow
							{
								OFFSET	-291.4	-30.8	15.2
								CHANNELS 3  Xrotation Yrotation Zrotation
								JOINT left_lowarm_twist
								{
									OFFSET	-110.7	-3.89999	13.6
									CHANNELS 3  Xrotation Yrotation Zrotation
									JOINT left_hand
									{
										OFFSET	-110.7	-3.89999	13.6
										CHANNELS 3  Xrotation Yrotation Zrotation
										JOINT left_ee
										{
											OFFSET	-80.8	-5.10001	12.1
											CHANNELS 3  Xrotation Yrotation Zrotation
											End Site
											{
												OFFSET	1	0	0
											}
										}
									}
								}
							}
						}
					}
					JOINT right_clavicle
					{
						OFFSET	43.2	22.4	-70.8
						CHANNELS 3  Xrotation Yrotation Zrotation
						JOINT right_shoulder
						{
							OFFSET	93.9	-5.79999	48.7
							CHANNELS 3  Xrotation Yrotation Zrotation
							JOINT right_elbow
							{
								OFFSET	291.4	-30.8	15.2
								CHANNELS 3  Xrotation Yrotation Zrotation
								JOINT right_lowarm_twist
								{
									OFFSET	110.7	-3.89999	13.6
									CHANNELS 3  Xrotation Yrotation Zrotation
									JOINT right_hand
									{
										OFFSET	110.7	-3.89999	13.6
										CHANNELS 3  Xrotation Yrotation Zrotation
										JOINT right_ee
										{
											OFFSET	80.8	-5.10001	12.1
											CHANNELS 3  Xrotation Yrotation Zrotation
											End Site
											{
												OFFSET	1	0	0
											}
										}
									}
								}
							}
						}
					}
				}
			}
		}
	}
	JOINT left_hip
	{
		OFFSET	-82.8	-127.5	0.300001
		CHANNELS 3  Xrotation Yrotation Zrotation
		JOINT left_knee
		{
			OFFSET	-28.2	-396.7	2.2
			CHANNELS 3  Xrotation Yrotation Zrotation
			JOINT left_ankle
			{
				OFFSET	-11.7	-411.3	35.4
				CHANNELS 3  Xrotation Yrotation Zrotation
				JOINT left_toes
				{
					OFFSET	0	-60	-88.6
					CHANNELS 3  Xrotation Yrotation Zrotation
					JOINT left_foot_ee
					{
						OFFSET	-22.5	-16.5	-42.2
						CHANNELS 3  Xrotation Yrotation Zrotation
						End Site
						{
							OFFSET	1	0	0
						}
					}
				}
			}
		}
	}
	JOINT right_hip
	{
		OFFSET	82.8	-127.5	0.300001
		CHANNELS 3  Xrotation Yrotation Zrotation
		JOINT right_knee
		{
			OFFSET	28.2	-396.7	2.2
			CHANNELS 3  Xrotation Yrotation Zrotation
			JOINT right_ankle
			{
				OFFSET	11.7	-411.3	35.4
				CHANNELS 3  Xrotation Yrotation Zrotation
				JOINT right_toes
				{
					OFFSET	0	-60	-88.6
					CHANNELS 3  Xrotation Yrotation Zrotation
					JOINT right_foot_ee
					{
						OFFSET	22.5	-16.5	-42.2
						CHANNELS 3  Xrotation Yrotation Zrotation
						End Site
						{
							OFFSET	1	0	0
						}
					}
				}
			}
		}
	}
}
MOTION
Frames: 13
Frame Time: 0.02
1314.5 636.761 -1505.02 -89.7188 82.8276 92.0677 2.81196 -0.106251 -1.17055 2.81272 -0.0315558 -1.17494 2.81317 0.15915 -1.16454 2.81128 -0.0267515 -1.17506 -12.0684 9.94215 8.60447 -11.9567 13.3417 11.036 -0.0 0.0 -0.0 0.887499 22.3018 3.8317 -29.6106 -30.625 66.6863 0.445675 -12.4499 0.0486126 -2.2114 -0.0831475 0.270127 3.51657 23.4711 31.3583 -0.0 0.0 -0.0 9.66303 0.485986 -18.9815 17.3717 -4.91486 -74.2947 3.47466 59.8299 -1.99964 -34.7626 2.41216 -3.6597 9.36442 20.8638 -63.8992 0.0 0.0 0.0 34.0384 -7.90761 -4.90462 -4.3964 0.155882 0.656543 2.32625 -5.98951 -0.349279 -19.5614 0.0 0.0 -0.0 0.0 -0.0 -17.8065 17.1414 -5.99243 1.23944 0.0530191 0.182801 41.2499 -9.01777 4.97758 -23.0597 0.0 0.0 0.0 0.0 0.0 
1296.59 637.94 -1500.85 -88.4608 82.5688 90.9388 2.85275 -0.0321373 -1.2381 2.8536 0.0467051 -1.23764 2.85234 0.245722 -1.2139 2.85028 0.0509405 -1.23747 -12.0407 9.79378 9.04162 -11.8987 12.7709 11.4056 -0.0 0.0 -0.0 1.27446 20.9299 4.27311 -29.4362 -30.8831 66.8245 0.435488 -12.1739 0.0464402 0.257474 0.00900082 -0.0316511 4.23963 25.2458 36.835 -0.0 0.0 -0.0 9.53439 -0.580503 -18.6721 16.7971 -4.56365 -74.8079 3.35253 58.9325 -1.89453 -37.0829 2.64641 -3.84338 9.54419 21.9828 -64.567 0.0 0.0 0.0 33.6837 -7.57708 -4.63976 -4.29892 0.152974 0.641866 1.87775 -5.52793 -0.281723 -18.7766 0.0 0.0 -0.0 0.0 -0.0 -17.7948 17.0717 -6.01754 0.314597 0.0130822 0.0465048 40.3098 -9.02114 4.89691 -22.8664 0.0 0.0 0.0 0.0 0.0 
1273.64 638.1 -1500.12 -87.8303 82.8194 90.0774 2.86344 0.0159701 -1.12489 2.86414 0.0875131 -1.1216 2.86221 0.267092 -1.09285 2.86056 0.0911569 -1.12131 -13.073 9.7343 10.168 -12.8747 12.1641 12.5603 -0.0 0.0 -0.0 1.2658 20.4088 4.22117 -29.2194 -30.4239 66.7923 0.447706 -12.5049 0.0490514 2.61012 0.0846235 -0.32261 4.535 24.644 38.9995 -0.0 0.0 -0.0 9.43095 -0.846383 -18.4496 15.5751 -4.5936 -74.9583 3.05185 56.505 -1.64027 -36.4063 2.57733 -3.79079 9.87395 23.4116 -66.6989 0.0 0.0 0.0 33.8337 -7.35864 -4.89003 -9.1326 0.266926 1.37467 4.97461 -7.27932 -0.745456 -16.1959 0.0 0.0 -0.0 0.0 -0.0 -18.2565 17.0208 -5.90997 -1.23485 -0.0488723 -0.1832 40.1594 -10.6274 4.89544 -22.4921 0.0 0.0 0.0 0.0 0.0 
1255.65 640.231 -1494.94 -88.3269 82.6934 90.735 2.84632 -0.0213385 -1.20369 2.84712 0.0552927 -1.2026 2.84572 0.248682 -1.17791 2.84379 0.059546 -1.2024 -14.2446 10.4685 11.1474 -14.0224 13.2373 13.8345 -0.0 0.0 -0.0 1.81993 19.6629 4.98414 -27.7992 -30.5557 67.2732 0.39405 -11.0455 0.0381007 4.82971 0.144955 -0.599703 4.89936 25.3137 41.96 -0.0 0.0 -0.0 9.12975 -0.437097 -17.8546 14.0038 -3.94665 -74.6872 3.0329 56.3407 -1.62448 -37.8698 2.72751 -3.9035 9.85771 23.3605 -66.5609 0.0 0.0 0.0 32.157 -7.04476 -4.52224 -7.46572 0.234623 1.12094 6.25893 -5.49799 -0.926539 -18.3974 0.0 0.0 -0.0 0.0 -0.0 -18.3498 17.1274 -5.40693 -2.13764 -0.0820944 -0.317764 39.2928 -10.6462 4.81883 -23.5983 0.0 0.0 0.0 0.0 0.0 
1233.5 650.401 -1491.66 -88.3344 82.5866 90.7129 2.84998 -0.0188074 -1.18912 2.85076 0.0568919 -1.1879 2.84935 0.247814 -1.16316 2.84747 0.0610171 -1.1877 -15.3328 11.2494 11.557 -15.1385 14.7594 14.6137 -0.0 0.0 -0.0 2.3114 18.9793 5.67933 -26.3242 -30.7165 67.0001 0.35006 -9.83801 0.0301278 7.11717 0.195847 -0.887456 5.06336 25.691 43.3403 -0.0 0.0 -0.0 9.0331 -0.145368 -17.6687 11.2752 -3.91964 -74.0927 2.85108 54.6894 -1.47459 -38.1612 2.75776 -3.92549 9.9201 23.0153 -68.0846 0.0 0.0 0.0 31.4791 -6.68038 -3.95461 -10.2183 0.28399 1.5404 10.7306 -5.59711 -1.5641 -18.1558 0.0 0.0 -0.0 0.0 -0.0 -18.161 17.3123 -5.19952 -2.73048 -0.102755 -0.406403 39.1492 -11.9352 4.81766 -23.8582 0.0 0.0 0.0 0.0 0.0 
1214.19 652.646 -1488.78 -88.2651 82.3661 90.3735 3.01086 -0.00103931 -1.05494 3.01148 0.0660873 -1.05286 3.01006 0.23221 -1.02907 3.00858 0.0667831 -1.05282 -16.1615 11.9187 12.3399 -15.961 15.8035 15.691 -0.0 0.0 -0.0 2.70141 18.305 6.23922 -24.6773 -30.7288 65.6351 0.346993 -9.75348 0.029606 8.9061 0.227617 -1.11375 5.12223 25.7261 43.8356 -0.0 0.0 -0.0 9.1476 0.502966 -17.9237 9.21109 -4.06467 -73.1925 2.68684 53.0722 -1.34191 -38.5219 2.79536 -3.95249 9.93613 22.4998 -69.3076 0.0 0.0 0.0 30.9385 -6.37276 -3.70141 -12.1798 0.306845 1.84048 14.1252 -5.66896 -2.03155 -17.9331 0.0 0.0 -0.0 0.0 -0.0 -18.1401 17.423 -5.07424 -3.73843 -0.135769 -0.557567 39.0392 -12.9 4.81806 -24.0308 0.0 0.0 0.0 0.0 0.0 
1200.42 651.49 -1485.75 -88.1726 82.362 89.9279 3.10877 0.022457 -0.87925 3.10919 0.0783583 -0.87604 3.10784 0.214825 -0.8529 3.10683 0.0774348 -0.876122 -16.593 12.2678 12.2547 -16.4372 16.6377 15.81 -0.0 0.0 -0.0 3.02868 17.9415 6.72665 -23.3563 -30.8328 64.8845 0.415649 -11.6348 0.042348 9.28613 0.233455 -1.16195 4.80826 25.5429 41.2462 -0.0 0.0 -0.0 9.25221 0.502059 -18.1378 7.34121 -4.2017 -72.8571 2.58271 51.9796 -1.25927 -38.6914 2.81308 -3.9651 9.94313 21.9846 -70.4396 0.0 0.0 0.0 30.5725 -6.07957 -3.42605 -12.9146 0.312759 1.95307 16.4765 -5.69967 -2.34576 -17.7876 0.0 0.0 -0.0 0.0 -0.0 -18.3911 17.4975 -4.819 -4.84555 -0.168958 -0.724233 39.8862 -13.4138 4.90052 -23.2061 0.0 0.0 0.0 0.0 0.0 
1183.12 650.965 -1484.4 -88.6631 82.8605 90.615 3.14397 -0.0280676 -0.975514 3.1445 0.0340608 -0.975323 3.14373 0.18605 -0.958021 3.14245 0.032421 -0.975379 -16.3737 12.209 13.5434 -16.0853 15.7295 16.9292 -0.0 0.0 -0.0 3.33227 17.787 7.18947 -22.1961 -30.9913 64.5598 0.390529 -10.9492 0.037429 11.0303 0.256142 -1.38358 4.66399 25.3652 40.0858 -0.0 0.0 -0.0 9.26369 0.490989 -18.161 5.15829 -4.66967 -72.4163 2.43632 50.3477 -1.14522 -36.2199 2.55842 -3.77617 10.2218 22.2144 -74.9286 0.0 0.0 0.0 28.2627 -5.86519 -3.3949 -12.4588 0.30926 1.88321 17.9637 -5.72112 -2.54023 -17.6949 0.0 0.0 -0.0 0.0 -0.0 -16.2842 17.5628 -4.57726 -11.1442 -0.296059 -1.68196 39.3192 -11.3314 4.82714 -21.9664 0.0 0.0 0.0 0.0 0.0 
1165.65 651.616 -1479.16 -89.8473 83.0237 91.779 3.17023 -0.101635 -0.962017 3.17074 -0.0402164 -0.966535 3.17124 0.11084 -0.961 3.16995 -0.042316 -0.966445 -17.4011 12.8946 13.2551 -17.226 17.5029 17.098 -0.0 0.0 -0.0 4.07428 17.3715 8.33429 -20.4445 -31.2125 64.4045 0.428421 -11.9822 0.0449616 12.4881 0.269921 -1.56926 4.66493 25.9583 40.1515 -0.0 0.0 -0.0 9.26702 -0.13864 -18.1451 3.21243 -5.71281 -71.8828 2.23332 47.8832 -0.991714 -39.849 2.93512 -4.04979 10.0887 22.2891 -72.2654 0.0 0.0 0.0 27.4704 -5.71279 -3.30906 -14.1668 0.319511 2.14508 19.2336 -5.80238 -2.70421 -17.4137 0.0 0.0 -0.0 0.0 -0.0 -14.0061 17.4647 -4.92176 -18.1123 -0.31333 -2.75028 41.3645 -12.2835 5.01629 -19.5061 0.0 0.0 0.0 0.0 0.0 
1148.24 656.557 -1473.33 -90.9111 83.236 92.9722 3.15021 -0.171559 -1.02257 3.15078 -0.106146 -1.03141 3.1525 0.0561514 -1.03534 3.15102 -0.108057 -1.03121 -17.2318 12.4075 13.5184 -16.9889 16.3681 17.1228 -0.0 0.0 -0.0 4.56391 17.0449 9.102 -18.6721 -31.2302 64.0176 0.472906 -13.1848 0.0546538 13.6098 0.277305 -1.71234 4.24205 25.6086 36.8987 -0.0 0.0 -0.0 9.11089 -0.329993 -17.8202 1.42523 -6.72652 -71.1982 2.00647 44.8209 -0.827504 -40.9751 3.05545 -4.12981 10.2217 21.8984 -75.7484 0.0 0.0 0.0 25.9945 -5.46996 -2.95515 -14.1901 0.319596 2.14865 20.043 -5.89457 -2.80787 -17.2978 0.0 0.0 -0.0 0.0 -0.0 -10.8179 17.0775 -5.1056 -26.5718 -0.160035 -4.03817 40.3848 -11.4658 4.9228 -16.1606 0.0 0.0 0.0 0.0 0.0 
1128.98 664.798 -1471.14 -88.8546 83.2616 91.4575 3.17673 -0.0822851 -1.29888 3.17767 0.000525898 -1.30149 3.17731 0.20315 -1.28554 3.17501 -0.0024086 -1.30149 -18.1959 13.8043 13.5068 -18.1092 19.3443 17.8401 -0.0 0.0 -0.0 5.04295 17.8795 9.84087 -15.1819 -27.699 64.6482 0.692908 -18.9446 0.11561 14.266 0.280325 -1.7961 3.47766 27.5817 31.7722 -0.0 0.0 -0.0 9.04033 -1.90121 -17.6147 -0.988539 -8.85086 -70.272 1.82652 42.1348 -0.703652 -42.57 3.22854 -4.23907 10.1482 22.2858 -73.344 0.0 0.0 0.0 22.8438 -5.37238 -3.13612 -11.0265 0.294651 1.66394 19.5325 -6.59201 -2.7512 -19.9643 0.0 0.0 -0.0 0.0 -0.0 -6.91544 16.4865 -3.77081 -33.5396 0.107703 -5.07331 38.5754 -7.46273 4.73619 -12.6053 0.0 0.0 0.0 0.0 0.0 
1112.1 666.31 -1465.44 -86.4484 82.9277 89.2538 3.22541 0.0560195 -1.40773 3.2265 0.145475 -1.40131 3.22251 0.360845 -1.36186 3.21995 0.141258 -1.40175 -17.4614 12.4582 12.2257 -17.3559 17.2434 16.0089 -0.0 0.0 -0.0 5.28058 17.443 10.2237 -13.0553 -31.9964 64.5784 0.792565 -21.4356 0.150014 14.4911 0.28114 -1.82484 2.83811 27.578 27.5895 -0.0 0.0 -0.0 8.98479 -2.88999 -17.4583 -2.35647 -11.773 -69.4302 1.66032 39.4332 -0.595059 -45.1533 3.51513 -4.40573 10.0333 19.64 -77.777 0.0 0.0 0.0 20.4239 -4.97226 -2.51222 -7.13002 0.227225 1.06995 21.4473 -5.89449 -2.98334 -18.2461 0.0 0.0 -0.0 0.0 -0.0 -4.48795 14.5566 -3.35306 -38.1827 0.355217 -5.74218 38.4629 -9.03206 4.73298 -8.36088 0.0 0.0 0.0 0.0 0.0 
1102.37 671.213 -1458.22 -84.0246 82.6584 86.6336 2.99972 0.238367 -1.31644 3.00063 0.321645 -1.29861 2.99299 0.52394 -1.23099 2.99102 0.32297 -1.29828 -17.2593 12.4428 10.2408 -17.3213 18.2626 14.1619 -0.0 0.0 -0.0 5.56591 18.1209 10.6494 -10.7179 -32.1535 64.7206 1.00299 -26.4201 0.235442 13.9733 0.279097 -1.75874 2.26719 25.8359 23.6342 -0.0 0.0 -0.0 9.10687 -2.75362 -17.7076 -2.9444 -14.7489 -68.386 1.49188 36.4633 -0.491445 -48.1526 3.85687 -4.58281 9.72832 17.0833 -77.4727 0.0 0.0 0.0 19.2635 -4.54632 -2.20517 -4.3716 0.155144 0.652808 20.5048 -5.2751 -2.85902 -20.138 0.0 0.0 -0.0 0.0 -0.0 -0.767496 13.0922 -3.13161 -40.6702 0.509957 -6.09184 37.409 -7.77313 4.63069 -5.75034 0.0 0.0 0.0 0.0 0.0 
